<mxfile host="app.diagrams.net" modified="2023-06-15T03:13:29.987Z" agent="Mozilla/5.0 (Windows NT 10.0; Win64; x64) AppleWebKit/537.36 (KHTML, like Gecko) Chrome/113.0.0.0 Safari/537.36 OPR/99.0.0.0" etag="w7BDUZ7K06olynYtuK40" version="21.3.8" type="device">
  <diagram name="PÃ¡gina-1" id="lGyLWDN0S1-BME6WWKKG">
    <mxGraphModel dx="3227" dy="1297" grid="1" gridSize="10" guides="1" tooltips="1" connect="1" arrows="1" fold="1" page="1" pageScale="1" pageWidth="827" pageHeight="1169" math="0" shadow="0">
      <root>
        <mxCell id="0" />
        <mxCell id="1" parent="0" />
        <mxCell id="k4hXc_sz66Rb-Vi4GGHc-1" value="Nivel&lt;br&gt;&amp;lt;&amp;lt;abstract&amp;gt;&amp;gt;" style="swimlane;fontStyle=1;align=center;verticalAlign=top;childLayout=stackLayout;horizontal=1;startSize=40;horizontalStack=0;resizeParent=1;resizeParentMax=0;resizeLast=0;collapsible=1;marginBottom=0;whiteSpace=wrap;html=1;" parent="1" vertex="1">
          <mxGeometry x="800" y="120" width="310" height="230" as="geometry" />
        </mxCell>
        <mxCell id="k4hXc_sz66Rb-Vi4GGHc-3" value="" style="line;strokeWidth=1;fillColor=none;align=left;verticalAlign=middle;spacingTop=-1;spacingLeft=3;spacingRight=3;rotatable=0;labelPosition=right;points=[];portConstraint=eastwest;strokeColor=inherit;" parent="k4hXc_sz66Rb-Vi4GGHc-1" vertex="1">
          <mxGeometry y="40" width="310" height="8" as="geometry" />
        </mxCell>
        <mxCell id="F9GrxfI-e3hsAR45wxRk-3" value="+opinar(Participante,Muestra,TipoDeOpinion,LocalDate)" style="text;strokeColor=none;fillColor=none;align=left;verticalAlign=top;spacingLeft=4;spacingRight=4;overflow=hidden;rotatable=0;points=[[0,0.5],[1,0.5]];portConstraint=eastwest;whiteSpace=wrap;html=1;" parent="k4hXc_sz66Rb-Vi4GGHc-1" vertex="1">
          <mxGeometry y="48" width="310" height="26" as="geometry" />
        </mxCell>
        <mxCell id="F9GrxfI-e3hsAR45wxRk-1" value="+recolectar(Participante,Muestra)" style="text;strokeColor=none;fillColor=none;align=left;verticalAlign=top;spacingLeft=4;spacingRight=4;overflow=hidden;rotatable=0;points=[[0,0.5],[1,0.5]];portConstraint=eastwest;whiteSpace=wrap;html=1;" parent="k4hXc_sz66Rb-Vi4GGHc-1" vertex="1">
          <mxGeometry y="74" width="310" height="26" as="geometry" />
        </mxCell>
        <mxCell id="qmfV9Jtpk2RZpAjD8yst-11" value="&lt;i&gt;+actualizarNivel(Participante)&lt;/i&gt;" style="text;strokeColor=none;fillColor=none;align=left;verticalAlign=top;spacingLeft=4;spacingRight=4;overflow=hidden;rotatable=0;points=[[0,0.5],[1,0.5]];portConstraint=eastwest;whiteSpace=wrap;html=1;" parent="k4hXc_sz66Rb-Vi4GGHc-1" vertex="1">
          <mxGeometry y="100" width="310" height="26" as="geometry" />
        </mxCell>
        <mxCell id="qmfV9Jtpk2RZpAjD8yst-12" value="&lt;i&gt;+puedeMantenerSuNivel(Participante):boolean&lt;/i&gt;" style="text;strokeColor=none;fillColor=none;align=left;verticalAlign=top;spacingLeft=4;spacingRight=4;overflow=hidden;rotatable=0;points=[[0,0.5],[1,0.5]];portConstraint=eastwest;whiteSpace=wrap;html=1;" parent="k4hXc_sz66Rb-Vi4GGHc-1" vertex="1">
          <mxGeometry y="126" width="310" height="26" as="geometry" />
        </mxCell>
        <mxCell id="qmfV9Jtpk2RZpAjD8yst-13" value="&lt;i&gt;+isBasico():boolean&lt;/i&gt;" style="text;strokeColor=none;fillColor=none;align=left;verticalAlign=top;spacingLeft=4;spacingRight=4;overflow=hidden;rotatable=0;points=[[0,0.5],[1,0.5]];portConstraint=eastwest;whiteSpace=wrap;html=1;" parent="k4hXc_sz66Rb-Vi4GGHc-1" vertex="1">
          <mxGeometry y="152" width="310" height="26" as="geometry" />
        </mxCell>
        <mxCell id="qmfV9Jtpk2RZpAjD8yst-14" value="&lt;i&gt;+isExperto():boolean&lt;/i&gt;" style="text;strokeColor=none;fillColor=none;align=left;verticalAlign=top;spacingLeft=4;spacingRight=4;overflow=hidden;rotatable=0;points=[[0,0.5],[1,0.5]];portConstraint=eastwest;whiteSpace=wrap;html=1;" parent="k4hXc_sz66Rb-Vi4GGHc-1" vertex="1">
          <mxGeometry y="178" width="310" height="26" as="geometry" />
        </mxCell>
        <mxCell id="qmfV9Jtpk2RZpAjD8yst-15" value="&lt;i&gt;+puedeOpinar(Muestra):boolean&lt;/i&gt;" style="text;strokeColor=none;fillColor=none;align=left;verticalAlign=top;spacingLeft=4;spacingRight=4;overflow=hidden;rotatable=0;points=[[0,0.5],[1,0.5]];portConstraint=eastwest;whiteSpace=wrap;html=1;" parent="k4hXc_sz66Rb-Vi4GGHc-1" vertex="1">
          <mxGeometry y="204" width="310" height="26" as="geometry" />
        </mxCell>
        <mxCell id="k4hXc_sz66Rb-Vi4GGHc-5" value="Participante" style="swimlane;fontStyle=1;align=center;verticalAlign=top;childLayout=stackLayout;horizontal=1;startSize=26;horizontalStack=0;resizeParent=1;resizeParentMax=0;resizeLast=0;collapsible=1;marginBottom=0;whiteSpace=wrap;html=1;" parent="1" vertex="1">
          <mxGeometry x="320" y="23" width="270" height="220" as="geometry" />
        </mxCell>
        <mxCell id="k4hXc_sz66Rb-Vi4GGHc-7" value="" style="line;strokeWidth=1;fillColor=none;align=left;verticalAlign=middle;spacingTop=-1;spacingLeft=3;spacingRight=3;rotatable=0;labelPosition=right;points=[];portConstraint=eastwest;strokeColor=inherit;" parent="k4hXc_sz66Rb-Vi4GGHc-5" vertex="1">
          <mxGeometry y="26" width="270" height="8" as="geometry" />
        </mxCell>
        <mxCell id="qmfV9Jtpk2RZpAjD8yst-33" value="&lt;u&gt;+ Participante(Ubicacion)&lt;/u&gt;" style="text;strokeColor=none;fillColor=none;align=left;verticalAlign=top;spacingLeft=4;spacingRight=4;overflow=hidden;rotatable=0;points=[[0,0.5],[1,0.5]];portConstraint=eastwest;whiteSpace=wrap;html=1;" parent="k4hXc_sz66Rb-Vi4GGHc-5" vertex="1">
          <mxGeometry y="34" width="270" height="26" as="geometry" />
        </mxCell>
        <mxCell id="k4hXc_sz66Rb-Vi4GGHc-8" value="+recolectar(TipoOpinion, LocalDate)" style="text;strokeColor=none;fillColor=none;align=left;verticalAlign=top;spacingLeft=4;spacingRight=4;overflow=hidden;rotatable=0;points=[[0,0.5],[1,0.5]];portConstraint=eastwest;whiteSpace=wrap;html=1;" parent="k4hXc_sz66Rb-Vi4GGHc-5" vertex="1">
          <mxGeometry y="60" width="270" height="20" as="geometry" />
        </mxCell>
        <mxCell id="k4hXc_sz66Rb-Vi4GGHc-23" value="+opinar(Muestra,TipoOpinion, LocalDate)" style="text;strokeColor=none;fillColor=none;align=left;verticalAlign=top;spacingLeft=4;spacingRight=4;overflow=hidden;rotatable=0;points=[[0,0.5],[1,0.5]];portConstraint=eastwest;whiteSpace=wrap;html=1;" parent="k4hXc_sz66Rb-Vi4GGHc-5" vertex="1">
          <mxGeometry y="80" width="270" height="20" as="geometry" />
        </mxCell>
        <mxCell id="qmfV9Jtpk2RZpAjD8yst-3" value="+agregarOpinion(Opinion)" style="text;strokeColor=none;fillColor=none;align=left;verticalAlign=top;spacingLeft=4;spacingRight=4;overflow=hidden;rotatable=0;points=[[0,0.5],[1,0.5]];portConstraint=eastwest;whiteSpace=wrap;html=1;" parent="k4hXc_sz66Rb-Vi4GGHc-5" vertex="1">
          <mxGeometry y="100" width="270" height="20" as="geometry" />
        </mxCell>
        <mxCell id="qmfV9Jtpk2RZpAjD8yst-4" value="+agregarMuestra(Muestra)" style="text;strokeColor=none;fillColor=none;align=left;verticalAlign=top;spacingLeft=4;spacingRight=4;overflow=hidden;rotatable=0;points=[[0,0.5],[1,0.5]];portConstraint=eastwest;whiteSpace=wrap;html=1;" parent="k4hXc_sz66Rb-Vi4GGHc-5" vertex="1">
          <mxGeometry y="120" width="270" height="20" as="geometry" />
        </mxCell>
        <mxCell id="qmfV9Jtpk2RZpAjD8yst-5" value="+enviosDeLosUltimos30Dias():List&amp;lt;Muestra&amp;gt;" style="text;strokeColor=none;fillColor=none;align=left;verticalAlign=top;spacingLeft=4;spacingRight=4;overflow=hidden;rotatable=0;points=[[0,0.5],[1,0.5]];portConstraint=eastwest;whiteSpace=wrap;html=1;" parent="k4hXc_sz66Rb-Vi4GGHc-5" vertex="1">
          <mxGeometry y="140" width="270" height="20" as="geometry" />
        </mxCell>
        <mxCell id="qmfV9Jtpk2RZpAjD8yst-8" value="+revisionesDeLosUltimos30Dias():List&amp;lt;Opinion&amp;gt;" style="text;strokeColor=none;fillColor=none;align=left;verticalAlign=top;spacingLeft=4;spacingRight=4;overflow=hidden;rotatable=0;points=[[0,0.5],[1,0.5]];portConstraint=eastwest;whiteSpace=wrap;html=1;" parent="k4hXc_sz66Rb-Vi4GGHc-5" vertex="1">
          <mxGeometry y="160" width="270" height="20" as="geometry" />
        </mxCell>
        <mxCell id="qmfV9Jtpk2RZpAjD8yst-9" value="+cantRevisionesDeLosUltimos30Dias():int" style="text;strokeColor=none;fillColor=none;align=left;verticalAlign=top;spacingLeft=4;spacingRight=4;overflow=hidden;rotatable=0;points=[[0,0.5],[1,0.5]];portConstraint=eastwest;whiteSpace=wrap;html=1;" parent="k4hXc_sz66Rb-Vi4GGHc-5" vertex="1">
          <mxGeometry y="180" width="270" height="20" as="geometry" />
        </mxCell>
        <mxCell id="qmfV9Jtpk2RZpAjD8yst-10" value="+cantEnviosDeLosUltimos30Dias():int" style="text;strokeColor=none;fillColor=none;align=left;verticalAlign=top;spacingLeft=4;spacingRight=4;overflow=hidden;rotatable=0;points=[[0,0.5],[1,0.5]];portConstraint=eastwest;whiteSpace=wrap;html=1;" parent="k4hXc_sz66Rb-Vi4GGHc-5" vertex="1">
          <mxGeometry y="200" width="270" height="20" as="geometry" />
        </mxCell>
        <mxCell id="k4hXc_sz66Rb-Vi4GGHc-9" value="Muestra" style="swimlane;fontStyle=1;align=center;verticalAlign=top;childLayout=stackLayout;horizontal=1;startSize=26;horizontalStack=0;resizeParent=1;resizeParentMax=0;resizeLast=0;collapsible=1;marginBottom=0;whiteSpace=wrap;html=1;" parent="1" vertex="1">
          <mxGeometry y="23" width="240" height="422" as="geometry" />
        </mxCell>
        <mxCell id="qmfV9Jtpk2RZpAjD8yst-46" value="-verificada:boolean" style="text;strokeColor=none;fillColor=none;align=left;verticalAlign=top;spacingLeft=4;spacingRight=4;overflow=hidden;rotatable=0;points=[[0,0.5],[1,0.5]];portConstraint=eastwest;whiteSpace=wrap;html=1;" parent="k4hXc_sz66Rb-Vi4GGHc-9" vertex="1">
          <mxGeometry y="26" width="240" height="26" as="geometry" />
        </mxCell>
        <mxCell id="qmfV9Jtpk2RZpAjD8yst-45" value="-fecha:LocalDate" style="text;strokeColor=none;fillColor=none;align=left;verticalAlign=top;spacingLeft=4;spacingRight=4;overflow=hidden;rotatable=0;points=[[0,0.5],[1,0.5]];portConstraint=eastwest;whiteSpace=wrap;html=1;" parent="k4hXc_sz66Rb-Vi4GGHc-9" vertex="1">
          <mxGeometry y="52" width="240" height="26" as="geometry" />
        </mxCell>
        <mxCell id="k4hXc_sz66Rb-Vi4GGHc-11" value="" style="line;strokeWidth=1;fillColor=none;align=left;verticalAlign=middle;spacingTop=-1;spacingLeft=3;spacingRight=3;rotatable=0;labelPosition=right;points=[];portConstraint=eastwest;strokeColor=inherit;" parent="k4hXc_sz66Rb-Vi4GGHc-9" vertex="1">
          <mxGeometry y="78" width="240" height="8" as="geometry" />
        </mxCell>
        <mxCell id="qmfV9Jtpk2RZpAjD8yst-36" value="&lt;u&gt;+Muestra(Participante,LocalDate)&lt;/u&gt;" style="text;strokeColor=none;fillColor=none;align=left;verticalAlign=top;spacingLeft=4;spacingRight=4;overflow=hidden;rotatable=0;points=[[0,0.5],[1,0.5]];portConstraint=eastwest;whiteSpace=wrap;html=1;" parent="k4hXc_sz66Rb-Vi4GGHc-9" vertex="1">
          <mxGeometry y="86" width="240" height="26" as="geometry" />
        </mxCell>
        <mxCell id="BTHPa9gqfThbI6_h4ynv-27" value="&lt;u&gt;+Muestra(Participante)&lt;/u&gt;" style="text;strokeColor=none;fillColor=none;align=left;verticalAlign=top;spacingLeft=4;spacingRight=4;overflow=hidden;rotatable=0;points=[[0,0.5],[1,0.5]];portConstraint=eastwest;whiteSpace=wrap;html=1;" vertex="1" parent="k4hXc_sz66Rb-Vi4GGHc-9">
          <mxGeometry y="112" width="240" height="26" as="geometry" />
        </mxCell>
        <mxCell id="qmfV9Jtpk2RZpAjD8yst-37" value="&amp;nbsp;+isVerificada(): boolean" style="text;strokeColor=none;fillColor=none;align=left;verticalAlign=top;spacingLeft=4;spacingRight=4;overflow=hidden;rotatable=0;points=[[0,0.5],[1,0.5]];portConstraint=eastwest;whiteSpace=wrap;html=1;" parent="k4hXc_sz66Rb-Vi4GGHc-9" vertex="1">
          <mxGeometry y="138" width="240" height="30" as="geometry" />
        </mxCell>
        <mxCell id="qmfV9Jtpk2RZpAjD8yst-38" value="&amp;nbsp;+resultadoActual():TipoDeOpinion" style="text;strokeColor=none;fillColor=none;align=left;verticalAlign=top;spacingLeft=4;spacingRight=4;overflow=hidden;rotatable=0;points=[[0,0.5],[1,0.5]];portConstraint=eastwest;whiteSpace=wrap;html=1;" parent="k4hXc_sz66Rb-Vi4GGHc-9" vertex="1">
          <mxGeometry y="168" width="240" height="30" as="geometry" />
        </mxCell>
        <mxCell id="qmfV9Jtpk2RZpAjD8yst-39" value="&amp;nbsp;+agregarOpinion(Opinion):&amp;nbsp;" style="text;strokeColor=none;fillColor=none;align=left;verticalAlign=top;spacingLeft=4;spacingRight=4;overflow=hidden;rotatable=0;points=[[0,0.5],[1,0.5]];portConstraint=eastwest;whiteSpace=wrap;html=1;" parent="k4hXc_sz66Rb-Vi4GGHc-9" vertex="1">
          <mxGeometry y="198" width="240" height="30" as="geometry" />
        </mxCell>
        <mxCell id="qmfV9Jtpk2RZpAjD8yst-40" value="&amp;nbsp;+fueOpinadaPor(Participante): boolean" style="text;strokeColor=none;fillColor=none;align=left;verticalAlign=top;spacingLeft=4;spacingRight=4;overflow=hidden;rotatable=0;points=[[0,0.5],[1,0.5]];portConstraint=eastwest;whiteSpace=wrap;html=1;" parent="k4hXc_sz66Rb-Vi4GGHc-9" vertex="1">
          <mxGeometry y="228" width="240" height="30" as="geometry" />
        </mxCell>
        <mxCell id="qmfV9Jtpk2RZpAjD8yst-41" value="&amp;nbsp;+soloOpinaronBasicos(): boolean" style="text;strokeColor=none;fillColor=none;align=left;verticalAlign=top;spacingLeft=4;spacingRight=4;overflow=hidden;rotatable=0;points=[[0,0.5],[1,0.5]];portConstraint=eastwest;whiteSpace=wrap;html=1;" parent="k4hXc_sz66Rb-Vi4GGHc-9" vertex="1">
          <mxGeometry y="258" width="240" height="30" as="geometry" />
        </mxCell>
        <mxCell id="BTHPa9gqfThbI6_h4ynv-28" value="&amp;nbsp;+getOpinionesExpertas():List&amp;lt;Opinion&amp;gt;" style="text;strokeColor=none;fillColor=none;align=left;verticalAlign=top;spacingLeft=4;spacingRight=4;overflow=hidden;rotatable=0;points=[[0,0.5],[1,0.5]];portConstraint=eastwest;whiteSpace=wrap;html=1;" vertex="1" parent="k4hXc_sz66Rb-Vi4GGHc-9">
          <mxGeometry y="288" width="240" height="30" as="geometry" />
        </mxCell>
        <mxCell id="BTHPa9gqfThbI6_h4ynv-29" value="+muestrasQueEstenAUnaDistanciaMenorA&lt;br&gt;(List&amp;lt;Muestra&amp;gt;, double):List&amp;lt;Muestra&amp;gt;" style="text;strokeColor=none;fillColor=none;align=left;verticalAlign=top;spacingLeft=4;spacingRight=4;overflow=hidden;rotatable=0;points=[[0,0.5],[1,0.5]];portConstraint=eastwest;whiteSpace=wrap;html=1;" vertex="1" parent="k4hXc_sz66Rb-Vi4GGHc-9">
          <mxGeometry y="318" width="240" height="52" as="geometry" />
        </mxCell>
        <mxCell id="BTHPa9gqfThbI6_h4ynv-30" value="+laMuestraSeEncuentraAMenosDe&lt;br&gt;(Muestra, double):boolean" style="text;strokeColor=none;fillColor=none;align=left;verticalAlign=top;spacingLeft=4;spacingRight=4;overflow=hidden;rotatable=0;points=[[0,0.5],[1,0.5]];portConstraint=eastwest;whiteSpace=wrap;html=1;" vertex="1" parent="k4hXc_sz66Rb-Vi4GGHc-9">
          <mxGeometry y="370" width="240" height="52" as="geometry" />
        </mxCell>
        <mxCell id="k4hXc_sz66Rb-Vi4GGHc-17" value="ubicacion" style="endArrow=block;endFill=1;html=1;edgeStyle=orthogonalEdgeStyle;align=left;verticalAlign=top;rounded=0;exitX=0.083;exitY=1.146;exitDx=0;exitDy=0;exitPerimeter=0;entryX=1;entryY=0;entryDx=0;entryDy=0;" parent="1" source="qmfV9Jtpk2RZpAjD8yst-10" target="k4hXc_sz66Rb-Vi4GGHc-49" edge="1">
          <mxGeometry x="0.6163" y="-13" relative="1" as="geometry">
            <mxPoint x="350" y="400" as="sourcePoint" />
            <mxPoint x="280" y="580" as="targetPoint" />
            <Array as="points">
              <mxPoint x="342" y="399" />
              <mxPoint x="341" y="399" />
              <mxPoint x="341" y="490" />
            </Array>
            <mxPoint as="offset" />
          </mxGeometry>
        </mxCell>
        <mxCell id="k4hXc_sz66Rb-Vi4GGHc-18" value="1" style="edgeLabel;resizable=0;html=1;align=left;verticalAlign=bottom;" parent="k4hXc_sz66Rb-Vi4GGHc-17" connectable="0" vertex="1">
          <mxGeometry x="-1" relative="1" as="geometry">
            <mxPoint x="-72" y="234" as="offset" />
          </mxGeometry>
        </mxCell>
        <mxCell id="k4hXc_sz66Rb-Vi4GGHc-19" value="nivel" style="endArrow=block;endFill=1;html=1;edgeStyle=orthogonalEdgeStyle;align=left;verticalAlign=top;rounded=0;exitX=1;exitY=0.25;exitDx=0;exitDy=0;" parent="1" source="k4hXc_sz66Rb-Vi4GGHc-5" edge="1">
          <mxGeometry x="0.0415" relative="1" as="geometry">
            <mxPoint x="490" y="180" as="sourcePoint" />
            <mxPoint x="798" y="190" as="targetPoint" />
            <Array as="points">
              <mxPoint x="590" y="190" />
            </Array>
            <mxPoint as="offset" />
          </mxGeometry>
        </mxCell>
        <mxCell id="k4hXc_sz66Rb-Vi4GGHc-21" value="1" style="edgeLabel;resizable=0;html=1;align=left;verticalAlign=bottom;" parent="1" connectable="0" vertex="1">
          <mxGeometry x="759.9999999999998" y="200.0000000000001" as="geometry">
            <mxPoint x="2" y="-1" as="offset" />
          </mxGeometry>
        </mxCell>
        <mxCell id="k4hXc_sz66Rb-Vi4GGHc-38" value="NivelBasico" style="swimlane;fontStyle=1;align=center;verticalAlign=top;childLayout=stackLayout;horizontal=1;startSize=26;horizontalStack=0;resizeParent=1;resizeParentMax=0;resizeLast=0;collapsible=1;marginBottom=0;whiteSpace=wrap;html=1;" parent="1" vertex="1">
          <mxGeometry x="1200" y="110" width="260" height="164" as="geometry" />
        </mxCell>
        <mxCell id="k4hXc_sz66Rb-Vi4GGHc-40" value="" style="line;strokeWidth=1;fillColor=none;align=left;verticalAlign=middle;spacingTop=-1;spacingLeft=3;spacingRight=3;rotatable=0;labelPosition=right;points=[];portConstraint=eastwest;strokeColor=inherit;" parent="k4hXc_sz66Rb-Vi4GGHc-38" vertex="1">
          <mxGeometry y="26" width="260" height="8" as="geometry" />
        </mxCell>
        <mxCell id="qmfV9Jtpk2RZpAjD8yst-21" value="+actualizarNivel(Participante)" style="text;strokeColor=none;fillColor=none;align=left;verticalAlign=top;spacingLeft=4;spacingRight=4;overflow=hidden;rotatable=0;points=[[0,0.5],[1,0.5]];portConstraint=eastwest;whiteSpace=wrap;html=1;" parent="k4hXc_sz66Rb-Vi4GGHc-38" vertex="1">
          <mxGeometry y="34" width="260" height="26" as="geometry" />
        </mxCell>
        <mxCell id="qmfV9Jtpk2RZpAjD8yst-22" value="+puedeMantenerSuNivel(Participante):boolean" style="text;strokeColor=none;fillColor=none;align=left;verticalAlign=top;spacingLeft=4;spacingRight=4;overflow=hidden;rotatable=0;points=[[0,0.5],[1,0.5]];portConstraint=eastwest;whiteSpace=wrap;html=1;" parent="k4hXc_sz66Rb-Vi4GGHc-38" vertex="1">
          <mxGeometry y="60" width="260" height="26" as="geometry" />
        </mxCell>
        <mxCell id="qmfV9Jtpk2RZpAjD8yst-23" value="+isBasico():boolean" style="text;strokeColor=none;fillColor=none;align=left;verticalAlign=top;spacingLeft=4;spacingRight=4;overflow=hidden;rotatable=0;points=[[0,0.5],[1,0.5]];portConstraint=eastwest;whiteSpace=wrap;html=1;" parent="k4hXc_sz66Rb-Vi4GGHc-38" vertex="1">
          <mxGeometry y="86" width="260" height="26" as="geometry" />
        </mxCell>
        <mxCell id="qmfV9Jtpk2RZpAjD8yst-24" value="+isExperto():boolean" style="text;strokeColor=none;fillColor=none;align=left;verticalAlign=top;spacingLeft=4;spacingRight=4;overflow=hidden;rotatable=0;points=[[0,0.5],[1,0.5]];portConstraint=eastwest;whiteSpace=wrap;html=1;" parent="k4hXc_sz66Rb-Vi4GGHc-38" vertex="1">
          <mxGeometry y="112" width="260" height="26" as="geometry" />
        </mxCell>
        <mxCell id="qmfV9Jtpk2RZpAjD8yst-25" value="+puedeOpinar(Muestra):boolean" style="text;strokeColor=none;fillColor=none;align=left;verticalAlign=top;spacingLeft=4;spacingRight=4;overflow=hidden;rotatable=0;points=[[0,0.5],[1,0.5]];portConstraint=eastwest;whiteSpace=wrap;html=1;" parent="k4hXc_sz66Rb-Vi4GGHc-38" vertex="1">
          <mxGeometry y="138" width="260" height="26" as="geometry" />
        </mxCell>
        <mxCell id="k4hXc_sz66Rb-Vi4GGHc-43" value="Extends" style="endArrow=block;endSize=16;endFill=0;html=1;rounded=0;entryX=0.998;entryY=0.065;entryDx=0;entryDy=0;entryPerimeter=0;" parent="1" source="k4hXc_sz66Rb-Vi4GGHc-38" target="F9GrxfI-e3hsAR45wxRk-3" edge="1">
          <mxGeometry x="-0.1862" y="-7" width="160" relative="1" as="geometry">
            <mxPoint x="1180" y="212" as="sourcePoint" />
            <mxPoint x="1050" y="227" as="targetPoint" />
            <mxPoint as="offset" />
          </mxGeometry>
        </mxCell>
        <mxCell id="k4hXc_sz66Rb-Vi4GGHc-44" value="Extends" style="endArrow=block;endSize=16;endFill=0;html=1;rounded=0;entryX=1;entryY=0.5;entryDx=0;entryDy=0;exitX=0;exitY=0;exitDx=0;exitDy=0;" parent="1" source="qmfV9Jtpk2RZpAjD8yst-26" target="F9GrxfI-e3hsAR45wxRk-1" edge="1">
          <mxGeometry width="160" relative="1" as="geometry">
            <mxPoint x="1206.25" y="284" as="sourcePoint" />
            <mxPoint x="920" y="297" as="targetPoint" />
          </mxGeometry>
        </mxCell>
        <mxCell id="k4hXc_sz66Rb-Vi4GGHc-45" value="Especialista" style="swimlane;fontStyle=1;align=center;verticalAlign=top;childLayout=stackLayout;horizontal=1;startSize=26;horizontalStack=0;resizeParent=1;resizeParentMax=0;resizeLast=0;collapsible=1;marginBottom=0;whiteSpace=wrap;html=1;" parent="1" vertex="1">
          <mxGeometry x="667" y="20" width="160" height="60" as="geometry" />
        </mxCell>
        <mxCell id="k4hXc_sz66Rb-Vi4GGHc-47" value="" style="line;strokeWidth=1;fillColor=none;align=left;verticalAlign=middle;spacingTop=-1;spacingLeft=3;spacingRight=3;rotatable=0;labelPosition=right;points=[];portConstraint=eastwest;strokeColor=inherit;" parent="k4hXc_sz66Rb-Vi4GGHc-45" vertex="1">
          <mxGeometry y="26" width="160" height="8" as="geometry" />
        </mxCell>
        <mxCell id="k4hXc_sz66Rb-Vi4GGHc-48" value="&lt;u&gt;+ Especialista(Ubicacion)&lt;/u&gt;" style="text;strokeColor=none;fillColor=none;align=left;verticalAlign=top;spacingLeft=4;spacingRight=4;overflow=hidden;rotatable=0;points=[[0,0.5],[1,0.5]];portConstraint=eastwest;whiteSpace=wrap;html=1;" parent="k4hXc_sz66Rb-Vi4GGHc-45" vertex="1">
          <mxGeometry y="34" width="160" height="26" as="geometry" />
        </mxCell>
        <mxCell id="k4hXc_sz66Rb-Vi4GGHc-49" value="Ubicacion" style="swimlane;fontStyle=1;align=center;verticalAlign=top;childLayout=stackLayout;horizontal=1;startSize=26;horizontalStack=0;resizeParent=1;resizeParentMax=0;resizeLast=0;collapsible=1;marginBottom=0;whiteSpace=wrap;html=1;" parent="1" vertex="1">
          <mxGeometry x="10" y="490" width="250" height="214" as="geometry" />
        </mxCell>
        <mxCell id="k4hXc_sz66Rb-Vi4GGHc-50" value="-latitud: double" style="text;strokeColor=none;fillColor=none;align=left;verticalAlign=top;spacingLeft=4;spacingRight=4;overflow=hidden;rotatable=0;points=[[0,0.5],[1,0.5]];portConstraint=eastwest;whiteSpace=wrap;html=1;" parent="k4hXc_sz66Rb-Vi4GGHc-49" vertex="1">
          <mxGeometry y="26" width="250" height="26" as="geometry" />
        </mxCell>
        <mxCell id="k4hXc_sz66Rb-Vi4GGHc-53" value="-longitud: double" style="text;strokeColor=none;fillColor=none;align=left;verticalAlign=top;spacingLeft=4;spacingRight=4;overflow=hidden;rotatable=0;points=[[0,0.5],[1,0.5]];portConstraint=eastwest;whiteSpace=wrap;html=1;" parent="k4hXc_sz66Rb-Vi4GGHc-49" vertex="1">
          <mxGeometry y="52" width="250" height="26" as="geometry" />
        </mxCell>
        <mxCell id="k4hXc_sz66Rb-Vi4GGHc-51" value="" style="line;strokeWidth=1;fillColor=none;align=left;verticalAlign=middle;spacingTop=-1;spacingLeft=3;spacingRight=3;rotatable=0;labelPosition=right;points=[];portConstraint=eastwest;strokeColor=inherit;" parent="k4hXc_sz66Rb-Vi4GGHc-49" vertex="1">
          <mxGeometry y="78" width="250" height="8" as="geometry" />
        </mxCell>
        <mxCell id="BTHPa9gqfThbI6_h4ynv-19" value="&lt;u&gt;&amp;nbsp;+Ubicacion(Double,Double)&lt;/u&gt;" style="text;strokeColor=none;fillColor=none;align=left;verticalAlign=top;spacingLeft=4;spacingRight=4;overflow=hidden;rotatable=0;points=[[0,0.5],[1,0.5]];portConstraint=eastwest;whiteSpace=wrap;html=1;" vertex="1" parent="k4hXc_sz66Rb-Vi4GGHc-49">
          <mxGeometry y="86" width="250" height="26" as="geometry" />
        </mxCell>
        <mxCell id="k4hXc_sz66Rb-Vi4GGHc-52" value="+distanciaA(Ubicacion): double" style="text;strokeColor=none;fillColor=none;align=left;verticalAlign=top;spacingLeft=4;spacingRight=4;overflow=hidden;rotatable=0;points=[[0,0.5],[1,0.5]];portConstraint=eastwest;whiteSpace=wrap;html=1;" parent="k4hXc_sz66Rb-Vi4GGHc-49" vertex="1">
          <mxGeometry y="112" width="250" height="26" as="geometry" />
        </mxCell>
        <mxCell id="k4hXc_sz66Rb-Vi4GGHc-54" value="+ubicacionesQueSeEncuentranAMenosDe(&lt;br&gt;List&amp;lt;Ubicacion&amp;gt;, double):List&amp;lt;Ubicacion&amp;gt;" style="text;strokeColor=none;fillColor=none;align=left;verticalAlign=top;spacingLeft=4;spacingRight=4;overflow=hidden;rotatable=0;points=[[0,0.5],[1,0.5]];portConstraint=eastwest;whiteSpace=wrap;html=1;" parent="k4hXc_sz66Rb-Vi4GGHc-49" vertex="1">
          <mxGeometry y="138" width="250" height="42" as="geometry" />
        </mxCell>
        <mxCell id="BTHPa9gqfThbI6_h4ynv-20" value="+laUbicacionSeEncuentraAMenosDe(&lt;br&gt;Ubicacion,double):boolean" style="text;strokeColor=none;fillColor=none;align=left;verticalAlign=top;spacingLeft=4;spacingRight=4;overflow=hidden;rotatable=0;points=[[0,0.5],[1,0.5]];portConstraint=eastwest;whiteSpace=wrap;html=1;" vertex="1" parent="k4hXc_sz66Rb-Vi4GGHc-49">
          <mxGeometry y="180" width="250" height="34" as="geometry" />
        </mxCell>
        <mxCell id="k4hXc_sz66Rb-Vi4GGHc-55" value="ZonaDeCobertura" style="swimlane;fontStyle=1;align=center;verticalAlign=top;childLayout=stackLayout;horizontal=1;startSize=26;horizontalStack=0;resizeParent=1;resizeParentMax=0;resizeLast=0;collapsible=1;marginBottom=0;whiteSpace=wrap;html=1;" parent="1" vertex="1">
          <mxGeometry x="550" y="580.0000000000001" width="270" height="294" as="geometry" />
        </mxCell>
        <mxCell id="k4hXc_sz66Rb-Vi4GGHc-56" value="-nombre: String" style="text;strokeColor=none;fillColor=none;align=left;verticalAlign=top;spacingLeft=4;spacingRight=4;overflow=hidden;rotatable=0;points=[[0,0.5],[1,0.5]];portConstraint=eastwest;whiteSpace=wrap;html=1;" parent="k4hXc_sz66Rb-Vi4GGHc-55" vertex="1">
          <mxGeometry y="26" width="270" height="26" as="geometry" />
        </mxCell>
        <mxCell id="k4hXc_sz66Rb-Vi4GGHc-76" value="-radio: double" style="text;strokeColor=none;fillColor=none;align=left;verticalAlign=top;spacingLeft=4;spacingRight=4;overflow=hidden;rotatable=0;points=[[0,0.5],[1,0.5]];portConstraint=eastwest;whiteSpace=wrap;html=1;" parent="k4hXc_sz66Rb-Vi4GGHc-55" vertex="1">
          <mxGeometry y="52" width="270" height="26" as="geometry" />
        </mxCell>
        <mxCell id="k4hXc_sz66Rb-Vi4GGHc-57" value="" style="line;strokeWidth=1;fillColor=none;align=left;verticalAlign=middle;spacingTop=-1;spacingLeft=3;spacingRight=3;rotatable=0;labelPosition=right;points=[];portConstraint=eastwest;strokeColor=inherit;" parent="k4hXc_sz66Rb-Vi4GGHc-55" vertex="1">
          <mxGeometry y="78" width="270" height="8" as="geometry" />
        </mxCell>
        <mxCell id="k4hXc_sz66Rb-Vi4GGHc-58" value="+ZonaCobertura(String,Ubicacion,int)" style="text;strokeColor=none;fillColor=none;align=left;verticalAlign=top;spacingLeft=4;spacingRight=4;overflow=hidden;rotatable=0;points=[[0,0.5],[1,0.5]];portConstraint=eastwest;whiteSpace=wrap;html=1;fontStyle=4" parent="k4hXc_sz66Rb-Vi4GGHc-55" vertex="1">
          <mxGeometry y="86" width="270" height="26" as="geometry" />
        </mxCell>
        <mxCell id="XPbgYDnaJXOtgOuc9pch-5" value="+addOrganizacion(Organizacion)" style="text;strokeColor=none;fillColor=none;align=left;verticalAlign=top;spacingLeft=4;spacingRight=4;overflow=hidden;rotatable=0;points=[[0,0.5],[1,0.5]];portConstraint=eastwest;whiteSpace=wrap;html=1;fontStyle=0" parent="k4hXc_sz66Rb-Vi4GGHc-55" vertex="1">
          <mxGeometry y="112" width="270" height="26" as="geometry" />
        </mxCell>
        <mxCell id="XPbgYDnaJXOtgOuc9pch-6" value="+removeOrganizacion(Organizacion)" style="text;strokeColor=none;fillColor=none;align=left;verticalAlign=top;spacingLeft=4;spacingRight=4;overflow=hidden;rotatable=0;points=[[0,0.5],[1,0.5]];portConstraint=eastwest;whiteSpace=wrap;html=1;fontStyle=0" parent="k4hXc_sz66Rb-Vi4GGHc-55" vertex="1">
          <mxGeometry y="138" width="270" height="26" as="geometry" />
        </mxCell>
        <mxCell id="BTHPa9gqfThbI6_h4ynv-18" value="&lt;div&gt;+zonasQueSeSolapan():List&amp;lt;ZonaDeCobertura&amp;gt;&lt;/div&gt;&lt;div&gt;&lt;br&gt;&lt;/div&gt;" style="text;strokeColor=none;fillColor=none;align=left;verticalAlign=top;spacingLeft=4;spacingRight=4;overflow=hidden;rotatable=0;points=[[0,0.5],[1,0.5]];portConstraint=eastwest;whiteSpace=wrap;html=1;fontStyle=0" vertex="1" parent="k4hXc_sz66Rb-Vi4GGHc-55">
          <mxGeometry y="164" width="270" height="26" as="geometry" />
        </mxCell>
        <mxCell id="XPbgYDnaJXOtgOuc9pch-7" value="&lt;div&gt;+seSolapaCon(ZonaCobertura)boolean&amp;nbsp;&lt;/div&gt;&lt;div&gt;&lt;br&gt;&lt;/div&gt;" style="text;strokeColor=none;fillColor=none;align=left;verticalAlign=top;spacingLeft=4;spacingRight=4;overflow=hidden;rotatable=0;points=[[0,0.5],[1,0.5]];portConstraint=eastwest;whiteSpace=wrap;html=1;fontStyle=0" parent="k4hXc_sz66Rb-Vi4GGHc-55" vertex="1">
          <mxGeometry y="190" width="270" height="26" as="geometry" />
        </mxCell>
        <mxCell id="XPbgYDnaJXOtgOuc9pch-8" value="&lt;div&gt;+seCreoLaMuestra(Muestra)&lt;/div&gt;&lt;div&gt;&lt;br&gt;&lt;/div&gt;" style="text;strokeColor=none;fillColor=none;align=left;verticalAlign=top;spacingLeft=4;spacingRight=4;overflow=hidden;rotatable=0;points=[[0,0.5],[1,0.5]];portConstraint=eastwest;whiteSpace=wrap;html=1;fontStyle=0" parent="k4hXc_sz66Rb-Vi4GGHc-55" vertex="1">
          <mxGeometry y="216" width="270" height="26" as="geometry" />
        </mxCell>
        <mxCell id="XPbgYDnaJXOtgOuc9pch-9" value="&lt;div&gt;+seVerificoLaMuestra(Muestra)&lt;/div&gt;&lt;div&gt;&lt;br&gt;&lt;/div&gt;" style="text;strokeColor=none;fillColor=none;align=left;verticalAlign=top;spacingLeft=4;spacingRight=4;overflow=hidden;rotatable=0;points=[[0,0.5],[1,0.5]];portConstraint=eastwest;whiteSpace=wrap;html=1;fontStyle=0" parent="k4hXc_sz66Rb-Vi4GGHc-55" vertex="1">
          <mxGeometry y="242" width="270" height="26" as="geometry" />
        </mxCell>
        <mxCell id="XPbgYDnaJXOtgOuc9pch-10" value="+leCorrespondeMuestra(Muestra)boolean&amp;nbsp;" style="text;strokeColor=none;fillColor=none;align=left;verticalAlign=top;spacingLeft=4;spacingRight=4;overflow=hidden;rotatable=0;points=[[0,0.5],[1,0.5]];portConstraint=eastwest;whiteSpace=wrap;html=1;fontStyle=0" parent="k4hXc_sz66Rb-Vi4GGHc-55" vertex="1">
          <mxGeometry y="268" width="270" height="26" as="geometry" />
        </mxCell>
        <mxCell id="k4hXc_sz66Rb-Vi4GGHc-59" value="Opinion" style="swimlane;fontStyle=1;align=center;verticalAlign=top;childLayout=stackLayout;horizontal=1;startSize=26;horizontalStack=0;resizeParent=1;resizeParentMax=0;resizeLast=0;collapsible=1;marginBottom=0;whiteSpace=wrap;html=1;" parent="1" vertex="1">
          <mxGeometry x="360" y="302" width="170" height="110" as="geometry" />
        </mxCell>
        <mxCell id="k4hXc_sz66Rb-Vi4GGHc-73" value="-fechaDeCreacion:LocalDate" style="text;strokeColor=none;fillColor=none;align=left;verticalAlign=top;spacingLeft=4;spacingRight=4;overflow=hidden;rotatable=0;points=[[0,0.5],[1,0.5]];portConstraint=eastwest;whiteSpace=wrap;html=1;" parent="k4hXc_sz66Rb-Vi4GGHc-59" vertex="1">
          <mxGeometry y="26" width="170" height="24" as="geometry" />
        </mxCell>
        <mxCell id="k4hXc_sz66Rb-Vi4GGHc-61" value="" style="line;strokeWidth=1;fillColor=none;align=left;verticalAlign=middle;spacingTop=-1;spacingLeft=3;spacingRight=3;rotatable=0;labelPosition=right;points=[];portConstraint=eastwest;strokeColor=inherit;" parent="k4hXc_sz66Rb-Vi4GGHc-59" vertex="1">
          <mxGeometry y="50" width="170" height="8" as="geometry" />
        </mxCell>
        <mxCell id="k4hXc_sz66Rb-Vi4GGHc-62" value="+ isBasico():boolean&amp;nbsp;" style="text;strokeColor=none;fillColor=none;align=left;verticalAlign=top;spacingLeft=4;spacingRight=4;overflow=hidden;rotatable=0;points=[[0,0.5],[1,0.5]];portConstraint=eastwest;whiteSpace=wrap;html=1;" parent="k4hXc_sz66Rb-Vi4GGHc-59" vertex="1">
          <mxGeometry y="58" width="170" height="26" as="geometry" />
        </mxCell>
        <mxCell id="qmfV9Jtpk2RZpAjD8yst-48" value="+ isExperto():boolean&amp;nbsp;" style="text;strokeColor=none;fillColor=none;align=left;verticalAlign=top;spacingLeft=4;spacingRight=4;overflow=hidden;rotatable=0;points=[[0,0.5],[1,0.5]];portConstraint=eastwest;whiteSpace=wrap;html=1;" parent="k4hXc_sz66Rb-Vi4GGHc-59" vertex="1">
          <mxGeometry y="84" width="170" height="26" as="geometry" />
        </mxCell>
        <mxCell id="k4hXc_sz66Rb-Vi4GGHc-81" value="Organizacion" style="swimlane;fontStyle=1;align=center;verticalAlign=top;childLayout=stackLayout;horizontal=1;startSize=26;horizontalStack=0;resizeParent=1;resizeParentMax=0;resizeLast=0;collapsible=1;marginBottom=0;whiteSpace=wrap;html=1;" parent="1" vertex="1">
          <mxGeometry x="10.000000000000028" y="756.3500000000001" width="330" height="244" as="geometry" />
        </mxCell>
        <mxCell id="k4hXc_sz66Rb-Vi4GGHc-85" value="+cantEmpleados: int" style="text;strokeColor=none;fillColor=none;align=left;verticalAlign=top;spacingLeft=4;spacingRight=4;overflow=hidden;rotatable=0;points=[[0,0.5],[1,0.5]];portConstraint=eastwest;whiteSpace=wrap;html=1;" parent="k4hXc_sz66Rb-Vi4GGHc-81" vertex="1">
          <mxGeometry y="26" width="330" height="28" as="geometry" />
        </mxCell>
        <mxCell id="k4hXc_sz66Rb-Vi4GGHc-83" value="" style="line;strokeWidth=1;fillColor=none;align=left;verticalAlign=middle;spacingTop=-1;spacingLeft=3;spacingRight=3;rotatable=0;labelPosition=right;points=[];portConstraint=eastwest;strokeColor=inherit;" parent="k4hXc_sz66Rb-Vi4GGHc-81" vertex="1">
          <mxGeometry y="54" width="330" height="8" as="geometry" />
        </mxCell>
        <mxCell id="k4hXc_sz66Rb-Vi4GGHc-84" value="&lt;u&gt;+Organizacion(FuncionalidadExterna,FuncionalidadExterna)&lt;/u&gt;" style="text;strokeColor=none;fillColor=none;align=left;verticalAlign=top;spacingLeft=4;spacingRight=4;overflow=hidden;rotatable=0;points=[[0,0.5],[1,0.5]];portConstraint=eastwest;whiteSpace=wrap;html=1;" parent="k4hXc_sz66Rb-Vi4GGHc-81" vertex="1">
          <mxGeometry y="62" width="330" height="26" as="geometry" />
        </mxCell>
        <mxCell id="XPbgYDnaJXOtgOuc9pch-11" value="+setFuncCarga(FuncionalidadExterna)" style="text;strokeColor=none;fillColor=none;align=left;verticalAlign=top;spacingLeft=4;spacingRight=4;overflow=hidden;rotatable=0;points=[[0,0.5],[1,0.5]];portConstraint=eastwest;whiteSpace=wrap;html=1;fontStyle=0" parent="k4hXc_sz66Rb-Vi4GGHc-81" vertex="1">
          <mxGeometry y="88" width="330" height="26" as="geometry" />
        </mxCell>
        <mxCell id="XPbgYDnaJXOtgOuc9pch-12" value="+setFuncValidacion(FuncionalidadExterna)" style="text;strokeColor=none;fillColor=none;align=left;verticalAlign=top;spacingLeft=4;spacingRight=4;overflow=hidden;rotatable=0;points=[[0,0.5],[1,0.5]];portConstraint=eastwest;whiteSpace=wrap;html=1;fontStyle=0" parent="k4hXc_sz66Rb-Vi4GGHc-81" vertex="1">
          <mxGeometry y="114" width="330" height="26" as="geometry" />
        </mxCell>
        <mxCell id="XPbgYDnaJXOtgOuc9pch-13" value="+cargaRealizada(ZonaCobertura,Muestra)" style="text;strokeColor=none;fillColor=none;align=left;verticalAlign=top;spacingLeft=4;spacingRight=4;overflow=hidden;rotatable=0;points=[[0,0.5],[1,0.5]];portConstraint=eastwest;whiteSpace=wrap;html=1;fontStyle=0" parent="k4hXc_sz66Rb-Vi4GGHc-81" vertex="1">
          <mxGeometry y="140" width="330" height="26" as="geometry" />
        </mxCell>
        <mxCell id="XPbgYDnaJXOtgOuc9pch-14" value="+validacionRealizada(ZonaCobertura,Muestra)" style="text;strokeColor=none;fillColor=none;align=left;verticalAlign=top;spacingLeft=4;spacingRight=4;overflow=hidden;rotatable=0;points=[[0,0.5],[1,0.5]];portConstraint=eastwest;whiteSpace=wrap;html=1;fontStyle=0" parent="k4hXc_sz66Rb-Vi4GGHc-81" vertex="1">
          <mxGeometry y="166" width="330" height="26" as="geometry" />
        </mxCell>
        <mxCell id="XPbgYDnaJXOtgOuc9pch-15" value="+suscribirseAZona(ZonaCobertura)" style="text;strokeColor=none;fillColor=none;align=left;verticalAlign=top;spacingLeft=4;spacingRight=4;overflow=hidden;rotatable=0;points=[[0,0.5],[1,0.5]];portConstraint=eastwest;whiteSpace=wrap;html=1;fontStyle=0" parent="k4hXc_sz66Rb-Vi4GGHc-81" vertex="1">
          <mxGeometry y="192" width="330" height="26" as="geometry" />
        </mxCell>
        <mxCell id="XPbgYDnaJXOtgOuc9pch-16" value="+desuscribirseDeZona(ZonaCobertura)" style="text;strokeColor=none;fillColor=none;align=left;verticalAlign=top;spacingLeft=4;spacingRight=4;overflow=hidden;rotatable=0;points=[[0,0.5],[1,0.5]];portConstraint=eastwest;whiteSpace=wrap;html=1;fontStyle=0" parent="k4hXc_sz66Rb-Vi4GGHc-81" vertex="1">
          <mxGeometry y="218" width="330" height="26" as="geometry" />
        </mxCell>
        <mxCell id="k4hXc_sz66Rb-Vi4GGHc-87" value="ubicacion" style="endArrow=block;endFill=1;html=1;edgeStyle=orthogonalEdgeStyle;align=left;verticalAlign=top;rounded=0;exitX=0.5;exitY=0;exitDx=0;exitDy=0;entryX=0.494;entryY=0.996;entryDx=0;entryDy=0;entryPerimeter=0;" parent="1" source="k4hXc_sz66Rb-Vi4GGHc-81" target="BTHPa9gqfThbI6_h4ynv-20" edge="1">
          <mxGeometry x="-0.6994" y="-22" relative="1" as="geometry">
            <mxPoint x="140" y="666.35" as="sourcePoint" />
            <mxPoint x="135.25000000000023" y="730.0100000000001" as="targetPoint" />
            <mxPoint x="15" y="6" as="offset" />
            <Array as="points">
              <mxPoint x="175" y="746" />
              <mxPoint x="134" y="746" />
              <mxPoint x="134" y="730" />
            </Array>
          </mxGeometry>
        </mxCell>
        <mxCell id="k4hXc_sz66Rb-Vi4GGHc-88" value="1" style="edgeLabel;resizable=0;html=1;align=left;verticalAlign=bottom;" parent="k4hXc_sz66Rb-Vi4GGHc-87" connectable="0" vertex="1">
          <mxGeometry x="-1" relative="1" as="geometry">
            <mxPoint x="-55" y="-29" as="offset" />
          </mxGeometry>
        </mxCell>
        <mxCell id="k4hXc_sz66Rb-Vi4GGHc-89" value="FuncionalidadExterna&lt;br&gt;&amp;lt;&amp;lt;interface&amp;gt;&amp;gt;" style="swimlane;fontStyle=1;align=center;verticalAlign=top;childLayout=stackLayout;horizontal=1;startSize=40;horizontalStack=0;resizeParent=1;resizeParentMax=0;resizeLast=0;collapsible=1;marginBottom=0;whiteSpace=wrap;html=1;" parent="1" vertex="1">
          <mxGeometry x="20" y="1090.0000000000002" width="290" height="74" as="geometry" />
        </mxCell>
        <mxCell id="k4hXc_sz66Rb-Vi4GGHc-91" value="" style="line;strokeWidth=1;fillColor=none;align=left;verticalAlign=middle;spacingTop=-1;spacingLeft=3;spacingRight=3;rotatable=0;labelPosition=right;points=[];portConstraint=eastwest;strokeColor=inherit;" parent="k4hXc_sz66Rb-Vi4GGHc-89" vertex="1">
          <mxGeometry y="40" width="290" height="8" as="geometry" />
        </mxCell>
        <mxCell id="k4hXc_sz66Rb-Vi4GGHc-92" value="+nuevoEvento(Organizacion,ZonaCobertura,Muestra)" style="text;strokeColor=none;fillColor=none;align=left;verticalAlign=top;spacingLeft=4;spacingRight=4;overflow=hidden;rotatable=0;points=[[0,0.5],[1,0.5]];portConstraint=eastwest;whiteSpace=wrap;html=1;" parent="k4hXc_sz66Rb-Vi4GGHc-89" vertex="1">
          <mxGeometry y="48" width="290" height="26" as="geometry" />
        </mxCell>
        <mxCell id="RgBHUJOFRDp-fcr00f06-1" value="Extends" style="endArrow=block;endSize=16;endFill=0;html=1;rounded=0;entryX=1.011;entryY=0.844;entryDx=0;entryDy=0;entryPerimeter=0;exitX=0;exitY=0.25;exitDx=0;exitDy=0;" parent="1" source="k4hXc_sz66Rb-Vi4GGHc-45" target="k4hXc_sz66Rb-Vi4GGHc-23" edge="1">
          <mxGeometry width="160" relative="1" as="geometry">
            <mxPoint x="650" y="480" as="sourcePoint" />
            <mxPoint x="810" y="480" as="targetPoint" />
          </mxGeometry>
        </mxCell>
        <mxCell id="VWDIG5IBCp3mxo8gKgHF-4" value="EstadoMuestra&lt;br&gt;&amp;lt;&amp;lt;abstract&amp;gt;&amp;gt;" style="swimlane;fontStyle=1;align=center;verticalAlign=top;childLayout=stackLayout;horizontal=1;startSize=40;horizontalStack=0;resizeParent=1;resizeParentMax=0;resizeLast=0;collapsible=1;marginBottom=0;whiteSpace=wrap;html=1;" parent="1" vertex="1">
          <mxGeometry x="-530" y="48" width="340" height="176" as="geometry" />
        </mxCell>
        <mxCell id="VWDIG5IBCp3mxo8gKgHF-5" value="" style="line;strokeWidth=1;fillColor=none;align=left;verticalAlign=middle;spacingTop=-1;spacingLeft=3;spacingRight=3;rotatable=0;labelPosition=right;points=[];portConstraint=eastwest;strokeColor=inherit;" parent="VWDIG5IBCp3mxo8gKgHF-4" vertex="1">
          <mxGeometry y="40" width="340" height="8" as="geometry" />
        </mxCell>
        <mxCell id="VWDIG5IBCp3mxo8gKgHF-6" value="&lt;span&gt;+resultadoActual(Muestra)TipoDeOpinion&lt;/span&gt;" style="text;strokeColor=none;fillColor=none;align=left;verticalAlign=top;spacingLeft=4;spacingRight=4;overflow=hidden;rotatable=0;points=[[0,0.5],[1,0.5]];portConstraint=eastwest;whiteSpace=wrap;html=1;fontStyle=2" parent="VWDIG5IBCp3mxo8gKgHF-4" vertex="1">
          <mxGeometry y="48" width="340" height="32" as="geometry" />
        </mxCell>
        <mxCell id="qmfV9Jtpk2RZpAjD8yst-53" value="&lt;i&gt;+verificarOActualizar(Muestra muestra, Opinion)&lt;/i&gt;" style="text;strokeColor=none;fillColor=none;align=left;verticalAlign=top;spacingLeft=4;spacingRight=4;overflow=hidden;rotatable=0;points=[[0,0.5],[1,0.5]];portConstraint=eastwest;whiteSpace=wrap;html=1;" parent="VWDIG5IBCp3mxo8gKgHF-4" vertex="1">
          <mxGeometry y="80" width="340" height="32" as="geometry" />
        </mxCell>
        <mxCell id="qmfV9Jtpk2RZpAjD8yst-52" value="&lt;span&gt;+tipoConMasCoincidencia(Stream&amp;lt;Opinion&amp;gt;):TipoDeOpinion&lt;/span&gt;" style="text;strokeColor=none;fillColor=none;align=left;verticalAlign=top;spacingLeft=4;spacingRight=4;overflow=hidden;rotatable=0;points=[[0,0.5],[1,0.5]];portConstraint=eastwest;whiteSpace=wrap;html=1;fontStyle=0" parent="VWDIG5IBCp3mxo8gKgHF-4" vertex="1">
          <mxGeometry y="112" width="340" height="32" as="geometry" />
        </mxCell>
        <mxCell id="BTHPa9gqfThbI6_h4ynv-33" value="&lt;i&gt;+isExperto():boolean&lt;/i&gt;" style="text;strokeColor=none;fillColor=none;align=left;verticalAlign=top;spacingLeft=4;spacingRight=4;overflow=hidden;rotatable=0;points=[[0,0.5],[1,0.5]];portConstraint=eastwest;whiteSpace=wrap;html=1;fontStyle=0" vertex="1" parent="VWDIG5IBCp3mxo8gKgHF-4">
          <mxGeometry y="144" width="340" height="32" as="geometry" />
        </mxCell>
        <mxCell id="VWDIG5IBCp3mxo8gKgHF-8" value="EstadoMuestraBasico" style="swimlane;fontStyle=1;align=center;verticalAlign=top;childLayout=stackLayout;horizontal=1;startSize=26;horizontalStack=0;resizeParent=1;resizeParentMax=0;resizeLast=0;collapsible=1;marginBottom=0;whiteSpace=wrap;html=1;" parent="1" vertex="1">
          <mxGeometry x="-310" y="347" width="270" height="130" as="geometry" />
        </mxCell>
        <mxCell id="VWDIG5IBCp3mxo8gKgHF-10" value="" style="line;strokeWidth=1;fillColor=none;align=left;verticalAlign=middle;spacingTop=-1;spacingLeft=3;spacingRight=3;rotatable=0;labelPosition=right;points=[];portConstraint=eastwest;strokeColor=inherit;" parent="VWDIG5IBCp3mxo8gKgHF-8" vertex="1">
          <mxGeometry y="26" width="270" height="8" as="geometry" />
        </mxCell>
        <mxCell id="qmfV9Jtpk2RZpAjD8yst-54" value="&lt;span&gt;+resultadoActual(Muestra)TipoDeOpinion&lt;/span&gt;" style="text;strokeColor=none;fillColor=none;align=left;verticalAlign=top;spacingLeft=4;spacingRight=4;overflow=hidden;rotatable=0;points=[[0,0.5],[1,0.5]];portConstraint=eastwest;whiteSpace=wrap;html=1;fontStyle=0" parent="VWDIG5IBCp3mxo8gKgHF-8" vertex="1">
          <mxGeometry y="34" width="270" height="32" as="geometry" />
        </mxCell>
        <mxCell id="qmfV9Jtpk2RZpAjD8yst-55" value="&lt;span&gt;+verificarOActualizar(Muestra muestra, Opinion)&lt;/span&gt;" style="text;strokeColor=none;fillColor=none;align=left;verticalAlign=top;spacingLeft=4;spacingRight=4;overflow=hidden;rotatable=0;points=[[0,0.5],[1,0.5]];portConstraint=eastwest;whiteSpace=wrap;html=1;fontStyle=0" parent="VWDIG5IBCp3mxo8gKgHF-8" vertex="1">
          <mxGeometry y="66" width="270" height="32" as="geometry" />
        </mxCell>
        <mxCell id="BTHPa9gqfThbI6_h4ynv-34" value="+isExperto():boolean" style="text;strokeColor=none;fillColor=none;align=left;verticalAlign=top;spacingLeft=4;spacingRight=4;overflow=hidden;rotatable=0;points=[[0,0.5],[1,0.5]];portConstraint=eastwest;whiteSpace=wrap;html=1;fontStyle=0" vertex="1" parent="VWDIG5IBCp3mxo8gKgHF-8">
          <mxGeometry y="98" width="270" height="32" as="geometry" />
        </mxCell>
        <mxCell id="qmfV9Jtpk2RZpAjD8yst-26" value="NivelExperto" style="swimlane;fontStyle=1;align=center;verticalAlign=top;childLayout=stackLayout;horizontal=1;startSize=26;horizontalStack=0;resizeParent=1;resizeParentMax=0;resizeLast=0;collapsible=1;marginBottom=0;whiteSpace=wrap;html=1;" parent="1" vertex="1">
          <mxGeometry x="1200" y="296" width="260" height="164" as="geometry" />
        </mxCell>
        <mxCell id="qmfV9Jtpk2RZpAjD8yst-27" value="" style="line;strokeWidth=1;fillColor=none;align=left;verticalAlign=middle;spacingTop=-1;spacingLeft=3;spacingRight=3;rotatable=0;labelPosition=right;points=[];portConstraint=eastwest;strokeColor=inherit;" parent="qmfV9Jtpk2RZpAjD8yst-26" vertex="1">
          <mxGeometry y="26" width="260" height="8" as="geometry" />
        </mxCell>
        <mxCell id="qmfV9Jtpk2RZpAjD8yst-28" value="+actualizarNivel(Participante)" style="text;strokeColor=none;fillColor=none;align=left;verticalAlign=top;spacingLeft=4;spacingRight=4;overflow=hidden;rotatable=0;points=[[0,0.5],[1,0.5]];portConstraint=eastwest;whiteSpace=wrap;html=1;" parent="qmfV9Jtpk2RZpAjD8yst-26" vertex="1">
          <mxGeometry y="34" width="260" height="26" as="geometry" />
        </mxCell>
        <mxCell id="qmfV9Jtpk2RZpAjD8yst-29" value="+puedeMantenerSuNivel(Participante):boolean" style="text;strokeColor=none;fillColor=none;align=left;verticalAlign=top;spacingLeft=4;spacingRight=4;overflow=hidden;rotatable=0;points=[[0,0.5],[1,0.5]];portConstraint=eastwest;whiteSpace=wrap;html=1;" parent="qmfV9Jtpk2RZpAjD8yst-26" vertex="1">
          <mxGeometry y="60" width="260" height="26" as="geometry" />
        </mxCell>
        <mxCell id="qmfV9Jtpk2RZpAjD8yst-30" value="+isBasico():boolean" style="text;strokeColor=none;fillColor=none;align=left;verticalAlign=top;spacingLeft=4;spacingRight=4;overflow=hidden;rotatable=0;points=[[0,0.5],[1,0.5]];portConstraint=eastwest;whiteSpace=wrap;html=1;" parent="qmfV9Jtpk2RZpAjD8yst-26" vertex="1">
          <mxGeometry y="86" width="260" height="26" as="geometry" />
        </mxCell>
        <mxCell id="qmfV9Jtpk2RZpAjD8yst-31" value="+isExperto():boolean" style="text;strokeColor=none;fillColor=none;align=left;verticalAlign=top;spacingLeft=4;spacingRight=4;overflow=hidden;rotatable=0;points=[[0,0.5],[1,0.5]];portConstraint=eastwest;whiteSpace=wrap;html=1;" parent="qmfV9Jtpk2RZpAjD8yst-26" vertex="1">
          <mxGeometry y="112" width="260" height="26" as="geometry" />
        </mxCell>
        <mxCell id="qmfV9Jtpk2RZpAjD8yst-32" value="+puedeOpinar(Muestra):boolean" style="text;strokeColor=none;fillColor=none;align=left;verticalAlign=top;spacingLeft=4;spacingRight=4;overflow=hidden;rotatable=0;points=[[0,0.5],[1,0.5]];portConstraint=eastwest;whiteSpace=wrap;html=1;" parent="qmfV9Jtpk2RZpAjD8yst-26" vertex="1">
          <mxGeometry y="138" width="260" height="26" as="geometry" />
        </mxCell>
        <mxCell id="qmfV9Jtpk2RZpAjD8yst-56" value="EstadoMuestraExperto" style="swimlane;fontStyle=1;align=center;verticalAlign=top;childLayout=stackLayout;horizontal=1;startSize=26;horizontalStack=0;resizeParent=1;resizeParentMax=0;resizeLast=0;collapsible=1;marginBottom=0;whiteSpace=wrap;html=1;" parent="1" vertex="1">
          <mxGeometry x="-630" y="347" width="270" height="130" as="geometry" />
        </mxCell>
        <mxCell id="qmfV9Jtpk2RZpAjD8yst-57" value="" style="line;strokeWidth=1;fillColor=none;align=left;verticalAlign=middle;spacingTop=-1;spacingLeft=3;spacingRight=3;rotatable=0;labelPosition=right;points=[];portConstraint=eastwest;strokeColor=inherit;" parent="qmfV9Jtpk2RZpAjD8yst-56" vertex="1">
          <mxGeometry y="26" width="270" height="8" as="geometry" />
        </mxCell>
        <mxCell id="qmfV9Jtpk2RZpAjD8yst-58" value="&lt;span&gt;+resultadoActual(Muestra)TipoDeOpinion&lt;/span&gt;" style="text;strokeColor=none;fillColor=none;align=left;verticalAlign=top;spacingLeft=4;spacingRight=4;overflow=hidden;rotatable=0;points=[[0,0.5],[1,0.5]];portConstraint=eastwest;whiteSpace=wrap;html=1;fontStyle=0" parent="qmfV9Jtpk2RZpAjD8yst-56" vertex="1">
          <mxGeometry y="34" width="270" height="32" as="geometry" />
        </mxCell>
        <mxCell id="qmfV9Jtpk2RZpAjD8yst-59" value="&lt;span&gt;+verificarOActualizar(Muestra muestra, Opinion)&lt;/span&gt;" style="text;strokeColor=none;fillColor=none;align=left;verticalAlign=top;spacingLeft=4;spacingRight=4;overflow=hidden;rotatable=0;points=[[0,0.5],[1,0.5]];portConstraint=eastwest;whiteSpace=wrap;html=1;fontStyle=0" parent="qmfV9Jtpk2RZpAjD8yst-56" vertex="1">
          <mxGeometry y="66" width="270" height="32" as="geometry" />
        </mxCell>
        <mxCell id="BTHPa9gqfThbI6_h4ynv-35" value="+isExperto():boolean" style="text;strokeColor=none;fillColor=none;align=left;verticalAlign=top;spacingLeft=4;spacingRight=4;overflow=hidden;rotatable=0;points=[[0,0.5],[1,0.5]];portConstraint=eastwest;whiteSpace=wrap;html=1;fontStyle=0" vertex="1" parent="qmfV9Jtpk2RZpAjD8yst-56">
          <mxGeometry y="98" width="270" height="32" as="geometry" />
        </mxCell>
        <mxCell id="qmfV9Jtpk2RZpAjD8yst-60" value="Extends" style="endArrow=block;endSize=16;endFill=0;html=1;rounded=0;exitX=0.5;exitY=0;exitDx=0;exitDy=0;entryX=0.252;entryY=1.031;entryDx=0;entryDy=0;entryPerimeter=0;" parent="1" source="qmfV9Jtpk2RZpAjD8yst-56" target="BTHPa9gqfThbI6_h4ynv-33" edge="1">
          <mxGeometry width="160" relative="1" as="geometry">
            <mxPoint x="-435" y="101" as="sourcePoint" />
            <mxPoint x="-275" y="101" as="targetPoint" />
          </mxGeometry>
        </mxCell>
        <mxCell id="qmfV9Jtpk2RZpAjD8yst-61" value="Extends" style="endArrow=block;endSize=16;endFill=0;html=1;rounded=0;exitX=0.5;exitY=0;exitDx=0;exitDy=0;entryX=0.838;entryY=1.052;entryDx=0;entryDy=0;entryPerimeter=0;" parent="1" source="VWDIG5IBCp3mxo8gKgHF-8" target="BTHPa9gqfThbI6_h4ynv-33" edge="1">
          <mxGeometry width="160" relative="1" as="geometry">
            <mxPoint x="-360" y="119" as="sourcePoint" />
            <mxPoint x="-460" y="188" as="targetPoint" />
          </mxGeometry>
        </mxCell>
        <mxCell id="XPbgYDnaJXOtgOuc9pch-1" value="organizaciones" style="endArrow=block;endFill=1;html=1;edgeStyle=orthogonalEdgeStyle;align=left;verticalAlign=top;rounded=0;entryX=1;entryY=0;entryDx=0;entryDy=0;exitX=-0.005;exitY=1.085;exitDx=0;exitDy=0;exitPerimeter=0;" parent="1" source="k4hXc_sz66Rb-Vi4GGHc-76" target="k4hXc_sz66Rb-Vi4GGHc-81" edge="1">
          <mxGeometry x="0.5604" y="-30" relative="1" as="geometry">
            <mxPoint x="720" y="770" as="sourcePoint" />
            <mxPoint x="340" y="659" as="targetPoint" />
            <Array as="points">
              <mxPoint x="520" y="660" />
              <mxPoint x="520" y="756" />
              <mxPoint x="340" y="756" />
            </Array>
            <mxPoint as="offset" />
          </mxGeometry>
        </mxCell>
        <mxCell id="XPbgYDnaJXOtgOuc9pch-2" value="*" style="edgeLabel;resizable=0;html=1;align=left;verticalAlign=bottom;" parent="XPbgYDnaJXOtgOuc9pch-1" connectable="0" vertex="1">
          <mxGeometry x="-1" relative="1" as="geometry">
            <mxPoint x="-189" y="85" as="offset" />
          </mxGeometry>
        </mxCell>
        <mxCell id="XPbgYDnaJXOtgOuc9pch-17" value="SistemaVinchucas" style="swimlane;fontStyle=1;align=center;verticalAlign=top;childLayout=stackLayout;horizontal=1;startSize=26;horizontalStack=0;resizeParent=1;resizeParentMax=0;resizeLast=0;collapsible=1;marginBottom=0;whiteSpace=wrap;html=1;" parent="1" vertex="1">
          <mxGeometry x="565" y="930" width="330" height="328" as="geometry" />
        </mxCell>
        <mxCell id="XPbgYDnaJXOtgOuc9pch-18" value="-fechaDeCreacion:LocalDate" style="text;strokeColor=none;fillColor=none;align=left;verticalAlign=top;spacingLeft=4;spacingRight=4;overflow=hidden;rotatable=0;points=[[0,0.5],[1,0.5]];portConstraint=eastwest;whiteSpace=wrap;html=1;" parent="XPbgYDnaJXOtgOuc9pch-17" vertex="1">
          <mxGeometry y="26" width="330" height="24" as="geometry" />
        </mxCell>
        <mxCell id="XPbgYDnaJXOtgOuc9pch-19" value="" style="line;strokeWidth=1;fillColor=none;align=left;verticalAlign=middle;spacingTop=-1;spacingLeft=3;spacingRight=3;rotatable=0;labelPosition=right;points=[];portConstraint=eastwest;strokeColor=inherit;" parent="XPbgYDnaJXOtgOuc9pch-17" vertex="1">
          <mxGeometry y="50" width="330" height="8" as="geometry" />
        </mxCell>
        <mxCell id="XPbgYDnaJXOtgOuc9pch-20" value="-SistemaVinchucas()" style="text;strokeColor=none;fillColor=none;align=left;verticalAlign=top;spacingLeft=4;spacingRight=4;overflow=hidden;rotatable=0;points=[[0,0.5],[1,0.5]];portConstraint=eastwest;whiteSpace=wrap;html=1;fontStyle=4" parent="XPbgYDnaJXOtgOuc9pch-17" vertex="1">
          <mxGeometry y="58" width="330" height="26" as="geometry" />
        </mxCell>
        <mxCell id="XPbgYDnaJXOtgOuc9pch-27" value="&amp;nbsp;&lt;span style=&quot;white-space: pre;&quot;&gt;&#x9;&lt;/span&gt;&lt;span style=&quot;white-space: pre;&quot;&gt;&#x9;&lt;span style=&quot;white-space: pre;&quot;&gt;&#x9;&lt;/span&gt;&lt;/span&gt;&amp;lt;&amp;lt;static&amp;gt;&amp;gt; +instanciaUnica():SistemaVinchucas" style="text;strokeColor=none;fillColor=none;align=left;verticalAlign=top;spacingLeft=4;spacingRight=4;overflow=hidden;rotatable=0;points=[[0,0.5],[1,0.5]];portConstraint=eastwest;whiteSpace=wrap;html=1;" parent="XPbgYDnaJXOtgOuc9pch-17" vertex="1">
          <mxGeometry y="84" width="330" height="36" as="geometry" />
        </mxCell>
        <mxCell id="XPbgYDnaJXOtgOuc9pch-21" value="+muestraCreada(Muestra )" style="text;strokeColor=none;fillColor=none;align=left;verticalAlign=top;spacingLeft=4;spacingRight=4;overflow=hidden;rotatable=0;points=[[0,0.5],[1,0.5]];portConstraint=eastwest;whiteSpace=wrap;html=1;" parent="XPbgYDnaJXOtgOuc9pch-17" vertex="1">
          <mxGeometry y="120" width="330" height="26" as="geometry" />
        </mxCell>
        <mxCell id="XPbgYDnaJXOtgOuc9pch-23" value="+muestraVerificada(Muestra)" style="text;strokeColor=none;fillColor=none;align=left;verticalAlign=top;spacingLeft=4;spacingRight=4;overflow=hidden;rotatable=0;points=[[0,0.5],[1,0.5]];portConstraint=eastwest;whiteSpace=wrap;html=1;" parent="XPbgYDnaJXOtgOuc9pch-17" vertex="1">
          <mxGeometry y="146" width="330" height="26" as="geometry" />
        </mxCell>
        <mxCell id="XPbgYDnaJXOtgOuc9pch-25" value="+agregarZonaAlSistema(ZonaCobertura)" style="text;strokeColor=none;fillColor=none;align=left;verticalAlign=top;spacingLeft=4;spacingRight=4;overflow=hidden;rotatable=0;points=[[0,0.5],[1,0.5]];portConstraint=eastwest;whiteSpace=wrap;html=1;" parent="XPbgYDnaJXOtgOuc9pch-17" vertex="1">
          <mxGeometry y="172" width="330" height="26" as="geometry" />
        </mxCell>
        <mxCell id="XPbgYDnaJXOtgOuc9pch-26" value="+removerZonaDelSistema(ZonaCobertura)" style="text;strokeColor=none;fillColor=none;align=left;verticalAlign=top;spacingLeft=4;spacingRight=4;overflow=hidden;rotatable=0;points=[[0,0.5],[1,0.5]];portConstraint=eastwest;whiteSpace=wrap;html=1;" parent="XPbgYDnaJXOtgOuc9pch-17" vertex="1">
          <mxGeometry y="198" width="330" height="26" as="geometry" />
        </mxCell>
        <mxCell id="XPbgYDnaJXOtgOuc9pch-36" value="instanciaUnica" style="endArrow=block;endFill=1;html=1;edgeStyle=orthogonalEdgeStyle;align=left;verticalAlign=top;rounded=0;entryX=0;entryY=0;entryDx=0;entryDy=0;exitX=0;exitY=0.5;exitDx=0;exitDy=0;" parent="XPbgYDnaJXOtgOuc9pch-17" source="XPbgYDnaJXOtgOuc9pch-18" target="XPbgYDnaJXOtgOuc9pch-17" edge="1">
          <mxGeometry x="-0.25" y="-2" relative="1" as="geometry">
            <mxPoint x="-170" y="10" as="sourcePoint" />
            <mxPoint x="-10" y="10" as="targetPoint" />
            <Array as="points">
              <mxPoint y="40" />
              <mxPoint x="-95" y="40" />
              <mxPoint x="-95" />
            </Array>
            <mxPoint as="offset" />
          </mxGeometry>
        </mxCell>
        <mxCell id="XPbgYDnaJXOtgOuc9pch-37" value="1" style="edgeLabel;resizable=0;html=1;align=left;verticalAlign=bottom;" parent="XPbgYDnaJXOtgOuc9pch-36" connectable="0" vertex="1">
          <mxGeometry x="-1" relative="1" as="geometry">
            <mxPoint x="-25" y="-48" as="offset" />
          </mxGeometry>
        </mxCell>
        <mxCell id="BTHPa9gqfThbI6_h4ynv-15" value="-notificarNuevaMuestraAZonasSiCorresponde(Muestra)" style="text;strokeColor=none;fillColor=none;align=left;verticalAlign=top;spacingLeft=4;spacingRight=4;overflow=hidden;rotatable=0;points=[[0,0.5],[1,0.5]];portConstraint=eastwest;whiteSpace=wrap;html=1;" vertex="1" parent="XPbgYDnaJXOtgOuc9pch-17">
          <mxGeometry y="224" width="330" height="26" as="geometry" />
        </mxCell>
        <mxCell id="BTHPa9gqfThbI6_h4ynv-16" value="-notificarMuestraVerificadaAZonasSiCorresponde(Muestra)" style="text;strokeColor=none;fillColor=none;align=left;verticalAlign=top;spacingLeft=4;spacingRight=4;overflow=hidden;rotatable=0;points=[[0,0.5],[1,0.5]];portConstraint=eastwest;whiteSpace=wrap;html=1;" vertex="1" parent="XPbgYDnaJXOtgOuc9pch-17">
          <mxGeometry y="250" width="330" height="26" as="geometry" />
        </mxCell>
        <mxCell id="BTHPa9gqfThbI6_h4ynv-17" value="+getListaDeZonasExistentes():&amp;nbsp;List&amp;lt;ZonaCobertura&amp;gt;" style="text;strokeColor=none;fillColor=none;align=left;verticalAlign=top;spacingLeft=4;spacingRight=4;overflow=hidden;rotatable=0;points=[[0,0.5],[1,0.5]];portConstraint=eastwest;whiteSpace=wrap;html=1;" vertex="1" parent="XPbgYDnaJXOtgOuc9pch-17">
          <mxGeometry y="276" width="330" height="26" as="geometry" />
        </mxCell>
        <mxCell id="BTHPa9gqfThbI6_h4ynv-14" value="+reset()" style="text;strokeColor=none;fillColor=none;align=left;verticalAlign=top;spacingLeft=4;spacingRight=4;overflow=hidden;rotatable=0;points=[[0,0.5],[1,0.5]];portConstraint=eastwest;whiteSpace=wrap;html=1;" vertex="1" parent="XPbgYDnaJXOtgOuc9pch-17">
          <mxGeometry y="302" width="330" height="26" as="geometry" />
        </mxCell>
        <mxCell id="XPbgYDnaJXOtgOuc9pch-30" value="listaDeZonasExistentes" style="endArrow=block;endFill=1;html=1;edgeStyle=orthogonalEdgeStyle;align=left;verticalAlign=top;rounded=0;entryX=0.498;entryY=1.046;entryDx=0;entryDy=0;entryPerimeter=0;exitX=0.5;exitY=0;exitDx=0;exitDy=0;" parent="1" source="XPbgYDnaJXOtgOuc9pch-17" target="XPbgYDnaJXOtgOuc9pch-10" edge="1">
          <mxGeometry x="-0.6056" y="-14" relative="1" as="geometry">
            <mxPoint x="480" y="920" as="sourcePoint" />
            <mxPoint x="640" y="920" as="targetPoint" />
            <Array as="points">
              <mxPoint x="730" y="910" />
              <mxPoint x="684" y="910" />
              <mxPoint x="684" y="875" />
            </Array>
            <mxPoint x="10" y="4" as="offset" />
          </mxGeometry>
        </mxCell>
        <mxCell id="XPbgYDnaJXOtgOuc9pch-31" value="*" style="edgeLabel;resizable=0;html=1;align=left;verticalAlign=bottom;" parent="XPbgYDnaJXOtgOuc9pch-30" connectable="0" vertex="1">
          <mxGeometry x="-1" relative="1" as="geometry">
            <mxPoint x="-40" y="-34" as="offset" />
          </mxGeometry>
        </mxCell>
        <mxCell id="XPbgYDnaJXOtgOuc9pch-41" value="autor" style="endArrow=block;endFill=1;html=1;edgeStyle=orthogonalEdgeStyle;align=left;verticalAlign=top;rounded=0;entryX=0.5;entryY=1;entryDx=0;entryDy=0;exitX=0.5;exitY=0;exitDx=0;exitDy=0;" parent="1" source="k4hXc_sz66Rb-Vi4GGHc-59" target="k4hXc_sz66Rb-Vi4GGHc-5" edge="1">
          <mxGeometry x="-0.3623" y="-5" relative="1" as="geometry">
            <mxPoint x="520" y="420" as="sourcePoint" />
            <mxPoint x="680" y="420" as="targetPoint" />
            <mxPoint as="offset" />
          </mxGeometry>
        </mxCell>
        <mxCell id="XPbgYDnaJXOtgOuc9pch-42" value="1" style="edgeLabel;resizable=0;html=1;align=left;verticalAlign=bottom;" parent="XPbgYDnaJXOtgOuc9pch-41" connectable="0" vertex="1">
          <mxGeometry x="-1" relative="1" as="geometry">
            <mxPoint x="-5" y="-32" as="offset" />
          </mxGeometry>
        </mxCell>
        <mxCell id="XPbgYDnaJXOtgOuc9pch-53" value="&amp;lt;&amp;lt;Enum&amp;gt;&amp;gt;&lt;br style=&quot;font-weight: 400;&quot;&gt;&lt;span style=&quot;font-weight: 400;&quot;&gt;TipoDeOpinion&lt;/span&gt;" style="swimlane;fontStyle=1;align=center;verticalAlign=top;childLayout=stackLayout;horizontal=1;startSize=38;horizontalStack=0;resizeParent=1;resizeParentMax=0;resizeLast=0;collapsible=1;marginBottom=0;whiteSpace=wrap;html=1;" parent="1" vertex="1">
          <mxGeometry x="605" y="312" width="160" height="228" as="geometry" />
        </mxCell>
        <mxCell id="XPbgYDnaJXOtgOuc9pch-44" value="VINCHUCA_INFESTANS" style="text;strokeColor=none;fillColor=none;align=left;verticalAlign=top;spacingLeft=4;spacingRight=4;overflow=hidden;rotatable=0;points=[[0,0.5],[1,0.5]];portConstraint=eastwest;whiteSpace=wrap;html=1;" parent="XPbgYDnaJXOtgOuc9pch-53" vertex="1">
          <mxGeometry y="38" width="160" height="26" as="geometry" />
        </mxCell>
        <mxCell id="XPbgYDnaJXOtgOuc9pch-47" value="VINCHUCA_SORDIDA" style="text;strokeColor=none;fillColor=none;align=left;verticalAlign=top;spacingLeft=4;spacingRight=4;overflow=hidden;rotatable=0;points=[[0,0.5],[1,0.5]];portConstraint=eastwest;whiteSpace=wrap;html=1;" parent="XPbgYDnaJXOtgOuc9pch-53" vertex="1">
          <mxGeometry y="64" width="160" height="26" as="geometry" />
        </mxCell>
        <mxCell id="XPbgYDnaJXOtgOuc9pch-48" value="VINCHUCA_GUASAYANA" style="text;strokeColor=none;fillColor=none;align=left;verticalAlign=top;spacingLeft=4;spacingRight=4;overflow=hidden;rotatable=0;points=[[0,0.5],[1,0.5]];portConstraint=eastwest;whiteSpace=wrap;html=1;" parent="XPbgYDnaJXOtgOuc9pch-53" vertex="1">
          <mxGeometry y="90" width="160" height="26" as="geometry" />
        </mxCell>
        <mxCell id="XPbgYDnaJXOtgOuc9pch-49" value="CHINCHE_FOLIADA" style="text;strokeColor=none;fillColor=none;align=left;verticalAlign=top;spacingLeft=4;spacingRight=4;overflow=hidden;rotatable=0;points=[[0,0.5],[1,0.5]];portConstraint=eastwest;whiteSpace=wrap;html=1;" parent="XPbgYDnaJXOtgOuc9pch-53" vertex="1">
          <mxGeometry y="116" width="160" height="26" as="geometry" />
        </mxCell>
        <mxCell id="XPbgYDnaJXOtgOuc9pch-50" value="PHTIA_CHINCHE" style="text;strokeColor=none;fillColor=none;align=left;verticalAlign=top;spacingLeft=4;spacingRight=4;overflow=hidden;rotatable=0;points=[[0,0.5],[1,0.5]];portConstraint=eastwest;whiteSpace=wrap;html=1;" parent="XPbgYDnaJXOtgOuc9pch-53" vertex="1">
          <mxGeometry y="142" width="160" height="26" as="geometry" />
        </mxCell>
        <mxCell id="XPbgYDnaJXOtgOuc9pch-51" value="NINGUNA" style="text;strokeColor=none;fillColor=none;align=left;verticalAlign=top;spacingLeft=4;spacingRight=4;overflow=hidden;rotatable=0;points=[[0,0.5],[1,0.5]];portConstraint=eastwest;whiteSpace=wrap;html=1;" parent="XPbgYDnaJXOtgOuc9pch-53" vertex="1">
          <mxGeometry y="168" width="160" height="26" as="geometry" />
        </mxCell>
        <mxCell id="XPbgYDnaJXOtgOuc9pch-52" value="IMAGEN_POCO_CLARA" style="text;strokeColor=none;fillColor=none;align=left;verticalAlign=top;spacingLeft=4;spacingRight=4;overflow=hidden;rotatable=0;points=[[0,0.5],[1,0.5]];portConstraint=eastwest;whiteSpace=wrap;html=1;" parent="XPbgYDnaJXOtgOuc9pch-53" vertex="1">
          <mxGeometry y="194" width="160" height="26" as="geometry" />
        </mxCell>
        <mxCell id="XPbgYDnaJXOtgOuc9pch-55" value="" style="line;strokeWidth=1;fillColor=none;align=left;verticalAlign=middle;spacingTop=-1;spacingLeft=3;spacingRight=3;rotatable=0;labelPosition=right;points=[];portConstraint=eastwest;strokeColor=inherit;" parent="XPbgYDnaJXOtgOuc9pch-53" vertex="1">
          <mxGeometry y="220" width="160" height="8" as="geometry" />
        </mxCell>
        <mxCell id="XPbgYDnaJXOtgOuc9pch-58" value="tipoDeOpinion" style="endArrow=block;endFill=1;html=1;edgeStyle=orthogonalEdgeStyle;align=left;verticalAlign=top;rounded=0;exitX=1;exitY=0.25;exitDx=0;exitDy=0;entryX=0;entryY=0;entryDx=0;entryDy=0;" parent="1" source="k4hXc_sz66Rb-Vi4GGHc-59" target="XPbgYDnaJXOtgOuc9pch-53" edge="1">
          <mxGeometry x="-0.1556" y="22" relative="1" as="geometry">
            <mxPoint x="470" y="430" as="sourcePoint" />
            <mxPoint x="630" y="430" as="targetPoint" />
            <Array as="points">
              <mxPoint x="530" y="302" />
              <mxPoint x="605" y="302" />
            </Array>
            <mxPoint as="offset" />
          </mxGeometry>
        </mxCell>
        <mxCell id="XPbgYDnaJXOtgOuc9pch-59" value="1" style="edgeLabel;resizable=0;html=1;align=left;verticalAlign=bottom;" parent="XPbgYDnaJXOtgOuc9pch-58" connectable="0" vertex="1">
          <mxGeometry x="-1" relative="1" as="geometry">
            <mxPoint x="60" y="-3" as="offset" />
          </mxGeometry>
        </mxCell>
        <mxCell id="XPbgYDnaJXOtgOuc9pch-60" value="nivel" style="endArrow=block;endFill=1;html=1;edgeStyle=orthogonalEdgeStyle;align=left;verticalAlign=top;rounded=0;exitX=1;exitY=0;exitDx=0;exitDy=0;" parent="1" source="k4hXc_sz66Rb-Vi4GGHc-59" edge="1">
          <mxGeometry x="-0.0289" y="3" relative="1" as="geometry">
            <mxPoint x="640" y="240" as="sourcePoint" />
            <mxPoint x="800" y="260" as="targetPoint" />
            <Array as="points">
              <mxPoint x="530" y="260" />
              <mxPoint x="800" y="260" />
            </Array>
            <mxPoint as="offset" />
          </mxGeometry>
        </mxCell>
        <mxCell id="XPbgYDnaJXOtgOuc9pch-61" value="1" style="edgeLabel;resizable=0;html=1;align=left;verticalAlign=bottom;" parent="XPbgYDnaJXOtgOuc9pch-60" connectable="0" vertex="1">
          <mxGeometry x="-1" relative="1" as="geometry">
            <mxPoint x="250" y="-19" as="offset" />
          </mxGeometry>
        </mxCell>
        <mxCell id="XPbgYDnaJXOtgOuc9pch-62" value="funcCarga" style="endArrow=block;endFill=1;html=1;edgeStyle=orthogonalEdgeStyle;align=left;verticalAlign=top;rounded=0;entryX=0.25;entryY=0;entryDx=0;entryDy=0;exitX=0.25;exitY=1;exitDx=0;exitDy=0;" parent="1" target="k4hXc_sz66Rb-Vi4GGHc-89" edge="1" source="k4hXc_sz66Rb-Vi4GGHc-81">
          <mxGeometry x="-1" relative="1" as="geometry">
            <mxPoint x="93" y="964.79" as="sourcePoint" />
            <mxPoint x="240" y="983.79" as="targetPoint" />
            <Array as="points" />
          </mxGeometry>
        </mxCell>
        <mxCell id="XPbgYDnaJXOtgOuc9pch-63" value="1" style="edgeLabel;resizable=0;html=1;align=left;verticalAlign=bottom;" parent="XPbgYDnaJXOtgOuc9pch-62" connectable="0" vertex="1">
          <mxGeometry x="-1" relative="1" as="geometry">
            <mxPoint x="7" y="65" as="offset" />
          </mxGeometry>
        </mxCell>
        <mxCell id="XPbgYDnaJXOtgOuc9pch-64" value="funcValidacion" style="endArrow=block;endFill=1;html=1;edgeStyle=orthogonalEdgeStyle;align=left;verticalAlign=top;rounded=0;exitX=0.689;exitY=1.034;exitDx=0;exitDy=0;exitPerimeter=0;entryX=0.75;entryY=0;entryDx=0;entryDy=0;" parent="1" source="XPbgYDnaJXOtgOuc9pch-16" target="k4hXc_sz66Rb-Vi4GGHc-89" edge="1">
          <mxGeometry x="-1" relative="1" as="geometry">
            <mxPoint x="190" y="1003.79" as="sourcePoint" />
            <mxPoint x="350" y="1003.79" as="targetPoint" />
            <Array as="points" />
          </mxGeometry>
        </mxCell>
        <mxCell id="XPbgYDnaJXOtgOuc9pch-65" value="1" style="edgeLabel;resizable=0;html=1;align=left;verticalAlign=bottom;" parent="XPbgYDnaJXOtgOuc9pch-64" connectable="0" vertex="1">
          <mxGeometry x="-1" relative="1" as="geometry">
            <mxPoint x="3" y="65" as="offset" />
          </mxGeometry>
        </mxCell>
        <mxCell id="XPbgYDnaJXOtgOuc9pch-66" value="autor" style="endArrow=block;endFill=1;html=1;edgeStyle=orthogonalEdgeStyle;align=left;verticalAlign=top;rounded=0;exitX=1.001;exitY=0.063;exitDx=0;exitDy=0;exitPerimeter=0;entryX=-0.008;entryY=0.08;entryDx=0;entryDy=0;entryPerimeter=0;" parent="1" source="k4hXc_sz66Rb-Vi4GGHc-9" target="k4hXc_sz66Rb-Vi4GGHc-5" edge="1">
          <mxGeometry x="-1" relative="1" as="geometry">
            <mxPoint x="240" y="20" as="sourcePoint" />
            <mxPoint x="310" y="39" as="targetPoint" />
            <Array as="points" />
          </mxGeometry>
        </mxCell>
        <mxCell id="XPbgYDnaJXOtgOuc9pch-67" value="1" style="edgeLabel;resizable=0;html=1;align=left;verticalAlign=bottom;" parent="XPbgYDnaJXOtgOuc9pch-66" connectable="0" vertex="1">
          <mxGeometry x="-1" relative="1" as="geometry">
            <mxPoint x="60" as="offset" />
          </mxGeometry>
        </mxCell>
        <mxCell id="BTHPa9gqfThbI6_h4ynv-1" value="&amp;lt;&amp;lt;Enum&amp;gt;&amp;gt;&lt;br style=&quot;font-weight: 400;&quot;&gt;TipoOrganizacion&amp;nbsp;" style="swimlane;fontStyle=1;align=center;verticalAlign=top;childLayout=stackLayout;horizontal=1;startSize=38;horizontalStack=0;resizeParent=1;resizeParentMax=0;resizeLast=0;collapsible=1;marginBottom=0;whiteSpace=wrap;html=1;" vertex="1" parent="1">
          <mxGeometry x="-270" y="693.79" width="160" height="150" as="geometry" />
        </mxCell>
        <mxCell id="BTHPa9gqfThbI6_h4ynv-2" value="SALUD" style="text;strokeColor=none;fillColor=none;align=left;verticalAlign=top;spacingLeft=4;spacingRight=4;overflow=hidden;rotatable=0;points=[[0,0.5],[1,0.5]];portConstraint=eastwest;whiteSpace=wrap;html=1;" vertex="1" parent="BTHPa9gqfThbI6_h4ynv-1">
          <mxGeometry y="38" width="160" height="26" as="geometry" />
        </mxCell>
        <mxCell id="BTHPa9gqfThbI6_h4ynv-4" value="EDUCATIVA" style="text;strokeColor=none;fillColor=none;align=left;verticalAlign=top;spacingLeft=4;spacingRight=4;overflow=hidden;rotatable=0;points=[[0,0.5],[1,0.5]];portConstraint=eastwest;whiteSpace=wrap;html=1;" vertex="1" parent="BTHPa9gqfThbI6_h4ynv-1">
          <mxGeometry y="64" width="160" height="26" as="geometry" />
        </mxCell>
        <mxCell id="BTHPa9gqfThbI6_h4ynv-5" value="CULTURAL" style="text;strokeColor=none;fillColor=none;align=left;verticalAlign=top;spacingLeft=4;spacingRight=4;overflow=hidden;rotatable=0;points=[[0,0.5],[1,0.5]];portConstraint=eastwest;whiteSpace=wrap;html=1;" vertex="1" parent="BTHPa9gqfThbI6_h4ynv-1">
          <mxGeometry y="90" width="160" height="26" as="geometry" />
        </mxCell>
        <mxCell id="BTHPa9gqfThbI6_h4ynv-3" value="ASISTENCIA" style="text;strokeColor=none;fillColor=none;align=left;verticalAlign=top;spacingLeft=4;spacingRight=4;overflow=hidden;rotatable=0;points=[[0,0.5],[1,0.5]];portConstraint=eastwest;whiteSpace=wrap;html=1;" vertex="1" parent="BTHPa9gqfThbI6_h4ynv-1">
          <mxGeometry y="116" width="160" height="26" as="geometry" />
        </mxCell>
        <mxCell id="BTHPa9gqfThbI6_h4ynv-9" value="" style="line;strokeWidth=1;fillColor=none;align=left;verticalAlign=middle;spacingTop=-1;spacingLeft=3;spacingRight=3;rotatable=0;labelPosition=right;points=[];portConstraint=eastwest;strokeColor=inherit;" vertex="1" parent="BTHPa9gqfThbI6_h4ynv-1">
          <mxGeometry y="142" width="160" height="8" as="geometry" />
        </mxCell>
        <mxCell id="BTHPa9gqfThbI6_h4ynv-12" value="tipo" style="endArrow=block;endFill=1;html=1;edgeStyle=orthogonalEdgeStyle;align=left;verticalAlign=top;rounded=0;entryX=1;entryY=0;entryDx=0;entryDy=0;exitX=0;exitY=0;exitDx=0;exitDy=0;" edge="1" parent="1" source="k4hXc_sz66Rb-Vi4GGHc-81" target="BTHPa9gqfThbI6_h4ynv-1">
          <mxGeometry x="-0.3333" relative="1" as="geometry">
            <mxPoint x="10" y="683.79" as="sourcePoint" />
            <mxPoint x="-110" y="683.79" as="targetPoint" />
            <Array as="points">
              <mxPoint x="-50" y="756" />
              <mxPoint x="-50" y="694" />
            </Array>
            <mxPoint as="offset" />
          </mxGeometry>
        </mxCell>
        <mxCell id="BTHPa9gqfThbI6_h4ynv-13" value="1" style="edgeLabel;resizable=0;html=1;align=left;verticalAlign=bottom;" connectable="0" vertex="1" parent="BTHPa9gqfThbI6_h4ynv-12">
          <mxGeometry x="-1" relative="1" as="geometry">
            <mxPoint x="-110" y="-29" as="offset" />
          </mxGeometry>
        </mxCell>
        <mxCell id="BTHPa9gqfThbI6_h4ynv-22" value="opiniones" style="endArrow=block;endFill=1;html=1;edgeStyle=orthogonalEdgeStyle;align=left;verticalAlign=top;rounded=0;entryX=0.001;entryY=0.033;entryDx=0;entryDy=0;entryPerimeter=0;" edge="1" parent="1" target="k4hXc_sz66Rb-Vi4GGHc-59">
          <mxGeometry x="-0.7531" relative="1" as="geometry">
            <mxPoint x="240" y="300" as="sourcePoint" />
            <mxPoint x="360" y="300" as="targetPoint" />
            <Array as="points">
              <mxPoint x="240" y="306" />
            </Array>
            <mxPoint as="offset" />
          </mxGeometry>
        </mxCell>
        <mxCell id="BTHPa9gqfThbI6_h4ynv-23" value="*" style="edgeLabel;resizable=0;html=1;align=left;verticalAlign=bottom;" connectable="0" vertex="1" parent="BTHPa9gqfThbI6_h4ynv-22">
          <mxGeometry x="-1" relative="1" as="geometry">
            <mxPoint x="110" y="2" as="offset" />
          </mxGeometry>
        </mxCell>
        <mxCell id="BTHPa9gqfThbI6_h4ynv-25" value="estado" style="endArrow=block;endFill=1;html=1;edgeStyle=orthogonalEdgeStyle;align=left;verticalAlign=top;rounded=0;exitX=0;exitY=0.192;exitDx=0;exitDy=0;exitPerimeter=0;" edge="1" parent="1" source="BTHPa9gqfThbI6_h4ynv-27">
          <mxGeometry x="-0.4939" relative="1" as="geometry">
            <mxPoint x="-30" y="140" as="sourcePoint" />
            <mxPoint x="-190" y="140" as="targetPoint" />
            <Array as="points" />
            <mxPoint as="offset" />
          </mxGeometry>
        </mxCell>
        <mxCell id="BTHPa9gqfThbI6_h4ynv-26" value="1" style="edgeLabel;resizable=0;html=1;align=left;verticalAlign=bottom;" connectable="0" vertex="1" parent="BTHPa9gqfThbI6_h4ynv-25">
          <mxGeometry x="-1" relative="1" as="geometry">
            <mxPoint x="-178" y="-5" as="offset" />
          </mxGeometry>
        </mxCell>
        <mxCell id="BTHPa9gqfThbI6_h4ynv-36" value="ubicacion" style="endArrow=block;endFill=1;html=1;edgeStyle=orthogonalEdgeStyle;align=left;verticalAlign=top;rounded=0;exitX=0.561;exitY=1.002;exitDx=0;exitDy=0;exitPerimeter=0;entryX=0.5;entryY=0;entryDx=0;entryDy=0;" edge="1" parent="1" source="BTHPa9gqfThbI6_h4ynv-30" target="k4hXc_sz66Rb-Vi4GGHc-49">
          <mxGeometry x="-0.8721" y="-65" relative="1" as="geometry">
            <mxPoint x="340" y="630" as="sourcePoint" />
            <mxPoint x="500" y="630" as="targetPoint" />
            <Array as="points">
              <mxPoint x="135" y="448" />
              <mxPoint x="135" y="448" />
            </Array>
            <mxPoint x="-64" y="-63" as="offset" />
          </mxGeometry>
        </mxCell>
        <mxCell id="BTHPa9gqfThbI6_h4ynv-37" value="1" style="edgeLabel;resizable=0;html=1;align=left;verticalAlign=bottom;" connectable="0" vertex="1" parent="BTHPa9gqfThbI6_h4ynv-36">
          <mxGeometry x="-1" relative="1" as="geometry">
            <mxPoint x="5" y="45" as="offset" />
          </mxGeometry>
        </mxCell>
        <mxCell id="BTHPa9gqfThbI6_h4ynv-38" value="epicentro" style="endArrow=block;endFill=1;html=1;edgeStyle=orthogonalEdgeStyle;align=left;verticalAlign=top;rounded=0;exitX=0;exitY=0;exitDx=0;exitDy=0;entryX=1;entryY=0.5;entryDx=0;entryDy=0;" edge="1" parent="1" source="k4hXc_sz66Rb-Vi4GGHc-55" target="k4hXc_sz66Rb-Vi4GGHc-50">
          <mxGeometry x="-0.349" y="11" relative="1" as="geometry">
            <mxPoint x="510" y="550" as="sourcePoint" />
            <mxPoint x="350" y="550" as="targetPoint" />
            <mxPoint as="offset" />
          </mxGeometry>
        </mxCell>
        <mxCell id="BTHPa9gqfThbI6_h4ynv-39" value="*" style="edgeLabel;resizable=0;html=1;align=left;verticalAlign=bottom;" connectable="0" vertex="1" parent="BTHPa9gqfThbI6_h4ynv-38">
          <mxGeometry x="-1" relative="1" as="geometry">
            <mxPoint x="-280" y="-30" as="offset" />
          </mxGeometry>
        </mxCell>
      </root>
    </mxGraphModel>
  </diagram>
</mxfile>
